<svg width="11" height="8" viewBox="0 0 11 8" fill="none" xmlns="http://www.w3.org/2000/svg">
<path d="M1.13078 7.26H2.53078V2.42L2.63078 1.83L2.23078 2.3L1.13078 3.09L0.750781 2.58L2.95078 0.88H3.31078V7.26H4.68078V8H1.13078V7.26ZM9.96 2.59C9.96 2.94333 9.89333 3.30667 9.76 3.68C9.63333 4.04667 9.46333 4.41667 9.25 4.79C9.04333 5.16333 8.81 5.53 8.55 5.89C8.29 6.24333 8.03 6.58 7.77 6.9L7.28 7.33V7.37L7.92 7.26H10.1V8H6.12V7.71C6.26667 7.55667 6.44333 7.36667 6.65 7.14C6.85667 6.91333 7.07 6.66333 7.29 6.39C7.51667 6.11 7.73667 5.81667 7.95 5.51C8.17 5.19667 8.36667 4.88 8.54 4.56C8.72 4.24 8.86333 3.92333 8.97 3.61C9.07667 3.29667 9.13 3 9.13 2.72C9.13 2.39333 9.03667 2.12333 8.85 1.91C8.66333 1.69 8.38 1.58 8 1.58C7.74667 1.58 7.5 1.63333 7.26 1.74C7.02 1.84 6.81333 1.95667 6.64 2.09L6.31 1.52C6.54333 1.32 6.82 1.16333 7.14 1.05C7.46 0.936666 7.80333 0.88 8.17 0.88C8.45667 0.88 8.71 0.923333 8.93 1.01C9.15 1.09 9.33667 1.20667 9.49 1.36C9.64333 1.51333 9.76 1.69667 9.84 1.91C9.92 2.11667 9.96 2.34333 9.96 2.59Z" fill="white"/>
</svg>
